#!OML:ASF E:\Style4\Style4.ASF
:FULLY-SPECIFIED
:DEGREES
2166
root 0.0549352 17.5653 -1.35897 -2.0938 0.282199 2.5602
lowerback 4.75351 2.25993 -0.0528973
upperback 0.49616 2.9985 -0.438595
thorax -2.13089 1.49443 -0.615251
lowerneck -4.27348 -5.13084 -5.90911
upperneck 11.3248 -6.80908 3.45818
head 4.41278 -3.41813 1.65946
rclavicle -3.12993e-014 1.33186e-014
rhumerus 49.7194 6.08175 -65.2136
rradius 55.317
rwrist -42.5025
rhand -27.1104 16.7072
rfingers 7.12502
rthumb -0.526726 -13.2719
lclavicle -3.12993e-014 1.33186e-014
lhumerus 49.9706 -15.0974 63.2386
lradius 68.9179
lwrist 54.9702
lhand -20.3413 33.35
lfingers 7.12502
lthumb 6.01033 63.2448
rfemur -13.1822 2.08076 15.5869
rtibia 37.3967
rfoot -20.8023 -12.1306
rtoes -12.2777
lfemur -11.8526 -2.16417 -21.6875
ltibia 34.8474
lfoot -20.7948 7.54917
ltoes -14.6614
2167
root 0.0554677 17.5643 -1.35996 -2.09599 0.234413 2.53129
lowerback 4.76606 2.26881 -0.0262098
upperback 0.474348 3.01201 -0.421835
thorax -2.15973 1.50087 -0.615
lowerneck -4.17308 -5.09937 -5.94893
upperneck 11.4319 -6.77288 3.47166
head 4.42885 -3.40263 1.67368
rclavicle -5.10628e-015 -7.95139e-016
rhumerus 49.779 6.08043 -65.1816
rradius 55.1861
rwrist -42.5551
rhand -27.1819 16.5584
rfingers 7.12502
rthumb -0.595761 -13.4205
lclavicle -5.10628e-015 -7.95139e-016
lhumerus 49.9755 -15.0558 63.1071
lradius 68.6937
lwrist 54.5856
lhand -19.983 33.2862
lfingers 7.12502
lthumb 6.35627 63.1708
rfemur -13.1863 2.11876 15.6203
rtibia 37.3814
rfoot -20.7675 -12.1443
rtoes -12.3944
lfemur -11.8581 -2.13054 -21.6546
ltibia 34.8558
lfoot -20.7978 7.60213
ltoes -14.9296
2168
root 0.0559087 17.565 -1.36079 -2.12196 0.205817 2.55971
lowerback 4.77724 2.26948 -0.0550743
upperback 0.483561 3.01142 -0.419256
thorax -2.15814 1.50085 -0.596479
lowerneck -4.18017 -5.0864 -6.00026
upperneck 11.6166 -6.75663 3.48585
head 4.48804 -3.39633 1.68505
rclavicle 2.19937e-014 9.14409e-015
rhumerus 49.8781 6.0783 -65.2102
rradius 55.134
rwrist -42.3588
rhand -27.2918 15.9407
rfingers 7.12502
rthumb -0.701902 -14.0379
lclavicle 2.19937e-014 9.14409e-015
lhumerus 49.9636 -14.9853 62.9891
lradius 68.5517
lwrist 54.5895
lhand -19.8385 33.0318
lfingers 7.12502
lthumb 6.49569 62.9122
rfemur -13.1628 2.12146 15.5858
rtibia 37.3704
rfoot -20.8046 -12.0915
rtoes -12.0414
lfemur -11.8217 -2.12954 -21.6908
ltibia 34.8435
lfoot -20.7638 7.62744
ltoes -14.9415
2169
root 0.0561892 17.5665 -1.36174 -2.13872 0.175019 2.53184
lowerback 4.74125 2.25996 -0.0322114
upperback 0.514479 3.0007 -0.393742
thorax -2.10652 1.4956 -0.579931
lowerneck -4.21171 -5.06483 -6.02392
upperneck 11.7888 -6.72391 3.45484
head 4.5443 -3.38292 1.67871
rclavicle -1.9133e-015 -2.5842e-015
rhumerus 50.0282 6.08207 -65.236
rradius 55.0433
rwrist -42.1435
rhand -27.2599 15.7789
rfingers 7.12502
rthumb -0.671132 -14.1998
lclavicle -1.9133e-015 -2.5842e-015
lhumerus 49.8767 -14.8597 62.9969
lradius 68.5412
lwrist 54.514
lhand -19.776 32.8249
lfingers 7.12502
lthumb 6.55606 62.7034
rfemur -13.1389 2.1427 15.6144
rtibia 37.3406
rfoot -20.8304 -12.0322
rtoes -11.7049
lfemur -11.7954 -2.10876 -21.6599
ltibia 34.8293
lfoot -20.7946 7.68511
ltoes -15.0201
